<svg width="14" height="14" viewBox="0 0 14 14" fill="none" xmlns="http://www.w3.org/2000/svg">
    <path
        d="M10.57 12.6875C10.22 12.6875 9.8642 12.6058 9.52587 12.4367L7.63587 11.4917C7.2392 11.2933 6.76087 11.2933 6.35837 11.4917L4.46837 12.4367C3.55837 12.8917 2.50837 12.7167 1.7967 11.9875C1.08503 11.2583 0.927534 10.2083 1.40587 9.30417L4.9642 2.54333C5.36087 1.785 6.14253 1.3125 7.00003 1.3125C7.85753 1.3125 8.6392 1.785 9.03587 2.54333L12.5942 9.30417C13.0667 10.2083 12.915 11.2583 12.2034 11.9875C11.7542 12.4483 11.1709 12.6875 10.57 12.6875ZM7.00003 10.465C7.35587 10.465 7.70587 10.5467 8.0267 10.7042L9.9167 11.6492C10.5992 11.9933 11.2234 11.7308 11.5734 11.3692C11.9234 11.0075 12.1742 10.3833 11.8184 9.70667L8.26003 2.94583C8.0092 2.47333 7.5367 2.1875 7.00003 2.1875C6.46337 2.1875 5.99087 2.47333 5.74003 2.95167L2.1817 9.7125C1.82587 10.3892 2.07087 11.0192 2.4267 11.375C2.78253 11.7308 3.40087 11.9933 4.08337 11.655L5.97337 10.71C6.2942 10.5467 6.6442 10.465 7.00003 10.465Z"
        fill="white" />
</svg>
    