<svg width="12" height="14" viewBox="0 0 12 14" fill="none" xmlns="http://www.w3.org/2000/svg">
    <path
        d="M2.77825 2.35113C3.57975 1.98713 4.719 1.75 6 1.75C7.281 1.75 8.42025 1.98625 9.22175 2.35113C10.0635 2.73438 10.375 3.17362 10.375 3.5C10.375 3.82725 10.0635 4.26563 9.22175 4.64888C8.42025 5.01288 7.281 5.25 6 5.25C4.719 5.25 3.57975 5.01375 2.77825 4.64888C1.9365 4.26563 1.625 3.82638 1.625 3.5C1.625 3.17275 1.9365 2.73438 2.77825 2.35113ZM10.375 4.98575V6.125C10.375 6.45225 10.0635 6.89062 9.22175 7.27387C8.42025 7.63787 7.281 7.875 6 7.875C4.719 7.875 3.57975 7.63875 2.77825 7.27387C1.9365 6.89062 1.625 6.45138 1.625 6.125V4.98575C1.86213 5.1625 2.1325 5.3165 2.416 5.44513C3.35575 5.87213 4.62363 6.125 6 6.125C7.37638 6.125 8.64425 5.87213 9.584 5.44513C9.86299 5.32006 10.1281 5.16609 10.375 4.98575ZM11.25 3.5C11.25 2.61888 10.4844 1.96437 9.584 1.55487C8.64425 1.12787 7.37638 0.875 6 0.875C4.62363 0.875 3.35575 1.12787 2.416 1.55487C1.51562 1.96437 0.75 2.61888 0.75 3.5V11.375C0.75 12.2561 1.51562 12.9106 2.416 13.3201C3.35575 13.7462 4.62363 14 6 14C7.37638 14 8.64425 13.7471 9.584 13.3201C10.4844 12.9106 11.25 12.2561 11.25 11.375V3.5ZM10.375 7.61075V8.75C10.375 9.07725 10.0635 9.51562 9.22175 9.89887C8.42025 10.2629 7.281 10.5 6 10.5C4.719 10.5 3.57975 10.2638 2.77825 9.89887C1.9365 9.51562 1.625 9.07638 1.625 8.75V7.61075C1.86213 7.7875 2.1325 7.9415 2.416 8.07012C3.35575 8.49625 4.62363 8.75 6 8.75C7.37638 8.75 8.64425 8.49712 9.584 8.07012C9.86299 7.94506 10.1281 7.79109 10.375 7.61075ZM10.375 10.2358V11.375C10.375 11.7023 10.0635 12.1406 9.22175 12.5239C8.42025 12.8879 7.281 13.125 6 13.125C4.719 13.125 3.57975 12.8888 2.77825 12.5239C1.9365 12.1406 1.625 11.7014 1.625 11.375V10.2358C1.86213 10.4125 2.1325 10.5665 2.416 10.6951C3.35575 11.1212 4.62363 11.375 6 11.375C7.37638 11.375 8.64425 11.1221 9.584 10.6951C9.8675 10.5665 10.1379 10.4125 10.375 10.2358Z"
        fill="white" />
</svg>
    