<svg width="17" height="17" viewBox="0 0 17 17" fill="none" xmlns="http://www.w3.org/2000/svg">
    <path
        d="M15.1666 5.33334H11.1666C10.8933 5.33334 10.6666 5.10668 10.6666 4.83334C10.6666 4.56001 10.8933 4.33334 11.1666 4.33334H15.1666C15.44 4.33334 15.6666 4.56001 15.6666 4.83334C15.6666 5.10668 15.44 5.33334 15.1666 5.33334Z"
        fill="#292D32" />
    <path
        d="M4.50004 5.33334H1.83337C1.56004 5.33334 1.33337 5.10668 1.33337 4.83334C1.33337 4.56001 1.56004 4.33334 1.83337 4.33334H4.50004C4.77337 4.33334 5.00004 4.56001 5.00004 4.83334C5.00004 5.10668 4.77337 5.33334 4.50004 5.33334Z"
        fill="#292D32" />
    <path
        d="M7.16671 7.66668C5.60671 7.66668 4.33337 6.39335 4.33337 4.83335C4.33337 3.27335 5.60671 2.00002 7.16671 2.00002C8.72671 2.00002 10 3.27335 10 4.83335C10 6.39335 8.72671 7.66668 7.16671 7.66668ZM7.16671 3.00002C6.15337 3.00002 5.33337 3.82002 5.33337 4.83335C5.33337 5.84668 6.15337 6.66668 7.16671 6.66668C8.18004 6.66668 9.00004 5.84668 9.00004 4.83335C9.00004 3.82002 8.18004 3.00002 7.16671 3.00002Z"
        fill="#292D32" />
    <path
        d="M15.1667 12.6667H12.5C12.2267 12.6667 12 12.44 12 12.1667C12 11.8933 12.2267 11.6667 12.5 11.6667H15.1667C15.44 11.6667 15.6667 11.8933 15.6667 12.1667C15.6667 12.44 15.44 12.6667 15.1667 12.6667Z"
        fill="#292D32" />
    <path
        d="M5.83337 12.6667H1.83337C1.56004 12.6667 1.33337 12.44 1.33337 12.1667C1.33337 11.8933 1.56004 11.6667 1.83337 11.6667H5.83337C6.10671 11.6667 6.33337 11.8933 6.33337 12.1667C6.33337 12.44 6.10671 12.6667 5.83337 12.6667Z"
        fill="#292D32" />
    <path
        d="M9.83333 15C8.27333 15 7 13.7267 7 12.1667C7 10.6067 8.27333 9.33334 9.83333 9.33334C11.3933 9.33334 12.6667 10.6067 12.6667 12.1667C12.6667 13.7267 11.3933 15 9.83333 15ZM9.83333 10.3333C8.82 10.3333 8 11.1533 8 12.1667C8 13.18 8.82 14 9.83333 14C10.8467 14 11.6667 13.18 11.6667 12.1667C11.6667 11.1533 10.8467 10.3333 9.83333 10.3333Z"
        fill="#292D32" />
</svg>
    