<svg width="14" height="14" viewBox="0 0 14 14" fill="none" xmlns="http://www.w3.org/2000/svg">
    <path
        d="M12.25 3.0625H1.75C1.51083 3.0625 1.3125 2.86417 1.3125 2.625C1.3125 2.38583 1.51083 2.1875 1.75 2.1875H12.25C12.4892 2.1875 12.6875 2.38583 12.6875 2.625C12.6875 2.86417 12.4892 3.0625 12.25 3.0625Z"
        fill="white" />
    <path
        d="M7.27417 5.97919H1.75C1.51083 5.97919 1.3125 5.78085 1.3125 5.54169C1.3125 5.30252 1.51083 5.10419 1.75 5.10419H7.27417C7.51333 5.10419 7.71167 5.30252 7.71167 5.54169C7.71167 5.78085 7.51917 5.97919 7.27417 5.97919Z"
        fill="white" />
    <path
        d="M12.25 8.89581H1.75C1.51083 8.89581 1.3125 8.69748 1.3125 8.45831C1.3125 8.21915 1.51083 8.02081 1.75 8.02081H12.25C12.4892 8.02081 12.6875 8.21915 12.6875 8.45831C12.6875 8.69748 12.4892 8.89581 12.25 8.89581Z"
        fill="white" />
    <path
        d="M7.27417 11.8125H1.75C1.51083 11.8125 1.3125 11.6142 1.3125 11.375C1.3125 11.1358 1.51083 10.9375 1.75 10.9375H7.27417C7.51333 10.9375 7.71167 11.1358 7.71167 11.375C7.71167 11.6142 7.51917 11.8125 7.27417 11.8125Z"
        fill="white" />
</svg>
    